<svg xmlns="http://www.w3.org/2000/svg" width="888" height="200" viewBox="0 0 888 200">
  <path fill="none" d="M326.334 154.031h235.332v33.666H326.334z"/>
  <path fill="#88C0D0" d="M328.818 154.027h1.38l22.451 31.697h.092v-31.697h.92v32.848h-1.38l-22.45-31.697h-.092v31.697h-.92v-32.848zm39.285 8.649c6.901 0 10.627 5.936 10.627 12.376 0 6.486-3.726 12.375-10.673 12.375-6.901 0-10.627-5.889-10.627-12.375 0-6.441 3.726-12.376 10.673-12.376zm0 23.831c6.303 0 9.707-5.475 9.707-11.455 0-5.889-3.404-11.455-9.707-11.455-6.395 0-9.753 5.566-9.753 11.455 0 5.98 3.358 11.455 9.753 11.455zm15.363.368h-.92v-23.646h.92v5.843h.092c.874-3.497 3.634-6.579 9.293-6.396v.921c-6.487-.322-9.385 4.738-9.385 9.891v13.387zm29.396-32.848h.92v32.848h-.92v-6.625h-.092c-1.196 4.141-4.646 7.177-9.477 7.177-6.257 0-10.075-5.198-10.075-12.329 0-6.625 3.542-12.422 10.075-12.422 5.015 0 8.373 2.898 9.477 7.178h.092v-15.827zm-9.57 9.57c-6.487 0-9.155 6.026-9.155 11.501 0 6.072 3.037 11.409 9.155 11.409 6.073 0 9.569-5.29 9.569-11.409.001-7.315-3.818-11.501-9.569-11.501z"/>
  <path fill="#2E3440" d="M432.225 154.027h2.898v4.646h-2.898v-4.646zm0 9.11h2.898v23.738h-2.898v-23.738zm5.473-9.11h26.038v2.668h-11.455v30.18h-3.127v-30.18h-11.456v-2.668zm25.163 21.761c.047 4.232 2.254 9.339 7.82 9.339 4.232 0 6.533-2.484 7.453-6.073h2.898c-1.242 5.383-4.371 8.512-10.352 8.512-7.545 0-10.719-5.797-10.719-12.56 0-6.257 3.174-12.56 10.719-12.56 7.637 0 10.674 6.671 10.443 13.342h-18.262zm15.366-2.438c-.137-4.371-2.852-8.465-7.545-8.465-4.738 0-7.359 4.141-7.82 8.465h15.365zm6.806-10.213h2.668v5.566h.092c1.473-3.818 4.693-6.073 8.971-5.889v2.898c-5.244-.276-8.832 3.588-8.832 8.511v12.651h-2.898v-23.737zm14.49 0h2.668v4.002h.137c1.52-2.853 4.004-4.692 7.775-4.692 3.129 0 5.936 1.519 6.809 4.646 1.426-3.128 4.416-4.646 7.545-4.646 5.199 0 7.867 2.714 7.867 8.327v16.102h-2.898v-15.964c0-3.91-1.473-6.026-5.613-6.026-5.014 0-6.439 4.141-6.439 8.557v13.434h-2.898v-16.102c.045-3.221-1.289-5.889-4.969-5.889-5.016 0-7.039 3.772-7.086 8.74v13.25h-2.896v-23.739zm58.42 23.738h-21.207c.229-9.569 10.029-11.915 15.504-17.39 1.748-1.795 2.668-3.497 2.668-6.073 0-4.187-3.313-6.578-7.223-6.578-5.291 0-7.361 4.232-7.27 8.971h-2.898c-.139-6.625 3.313-11.409 10.305-11.409 5.613 0 9.984 3.082 9.984 9.063 0 5.383-3.91 8.741-8.098 11.456-3.129 2.116-8.879 4.968-9.66 9.293h17.895v2.667z"/>
  <g fill="#2E3440">
    <path d="M466.561 136.031l-43.393-55.545v-15.41l48.092 62.17h25.844V39.701h-43.465l-9.396-9.398H506.5v105.728z"/>
    <path d="M421.44 30.303l43.394 55.541v15.41l-48.092-62.168h-25.843v87.545h43.463l9.4 9.4H381.5V30.303z"/>
  </g>
</svg>
